<svg xmlns="http://www.w3.org/2000/svg" viewBox="0 0 24 24" id="bmw"><circle cx="12" cy="12" r="11.224" fill="#455A64"></circle><path fill="#FAFAFA" d="M12 19.2a7.2 7.2 0 1 1 .001-14.401A7.2 7.2 0 0 1 12 19.2z"></path><path fill="#2196F3" d="M4.8 12H12V4.8A7.2 7.2 0 0 0 4.8 12zm7.2 0v7.2a7.2 7.2 0 0 0 7.2-7.2H12z"></path><path d="M12 24C5.383 24 0 18.617 0 12S5.383 0 12 0s12 5.383 12 12-5.383 12-12 12zm0-22.5C6.21 1.5 1.5 6.21 1.5 12S6.21 22.5 12 22.5 22.5 17.79 22.5 12 17.79 1.5 12 1.5z"></path><path d="M12 20c-4.411 0-8-3.589-8-8s3.589-8 8-8 8 3.589 8 8-3.589 8-8 8zm0-14.5c-3.584 0-6.5 2.916-6.5 6.5s2.916 6.5 6.5 6.5 6.5-2.916 6.5-6.5-2.916-6.5-6.5-6.5z"></path><path d="M12 20a.75.75 0 0 1-.75-.75V4.75a.75.75 0 0 1 1.5 0v14.5A.75.75 0 0 1 12 20z"></path><path d="M19.25 12.75H4.75a.75.75 0 0 1 0-1.5h14.5a.75.75 0 0 1 0 1.5z"></path></svg>